<svg width="1024" height="768" viewBox="0 0 1024 768" fill="none" xmlns="http://www.w3.org/2000/svg">
<path d="M179.774 323.541V254.11H215.548C216.183 254.11 216.818 253.475 216.818 252.628V249.029C216.818 248.394 216.183 247.759 215.548 247.759H179.774V221.511C179.562 220.664 179.139 220.241 178.292 220.241H174.27C173.423 220.241 173 220.664 173 221.511V323.752C173 345.556 185.278 358.045 205.599 358.045C208.562 358.045 214.278 357.833 218.3 357.41C219.146 357.198 219.57 356.775 219.57 355.928V352.329C219.57 351.483 219.146 351.059 218.3 351.059C214.066 351.483 208.774 351.694 205.599 351.694C188.664 351.694 179.774 341.322 179.774 323.541V323.541Z" fill="#04090C"/>
<path d="M325.323 285.65C325.323 260.037 307.965 245.431 283.198 245.431C258.432 245.431 241.074 260.037 241.074 285.65V319.942C241.074 344.285 260.972 358.468 283.198 358.468C301.191 358.468 314.315 350.424 323.206 342.169C324.053 341.745 324.053 341.11 323.417 340.475L321.089 337.723C320.666 337.088 320.031 337.088 319.396 337.512C311.352 344.709 299.921 352.329 283.41 352.329C264.147 352.329 247.848 340.475 247.848 319.942V305.971H324.053C324.688 305.971 325.323 305.548 325.323 304.701V285.65ZM318.549 285.65V300.044H247.848V285.65C247.848 263.847 261.819 251.781 283.198 251.781C304.366 251.781 318.549 264.059 318.549 285.65Z" fill="#19252E"/>
<path d="M399.724 357.621C400.57 357.41 400.994 356.775 400.994 355.928V352.329C400.994 351.483 400.57 351.271 399.724 351.271C395.49 351.906 390.621 352.118 387.658 352.118C375.169 352.118 367.337 344.285 367.337 324.176V206.27C367.337 205.423 366.913 205 366.067 205H361.833C360.986 205 360.563 205.423 360.563 206.27V323.541C360.563 348.307 371.147 358.468 387.446 358.468C390.833 358.468 396.125 358.045 399.724 357.621V357.621Z" fill="#2E424F"/>
<path d="M504.616 285.65C504.616 260.037 487.259 245.431 462.492 245.431C437.726 245.431 420.368 260.037 420.368 285.65V319.942C420.368 344.285 440.266 358.468 462.492 358.468C480.485 358.468 493.609 350.424 502.5 342.169C503.346 341.745 503.347 341.11 502.712 340.475L500.383 337.723C499.96 337.088 499.325 337.088 498.689 337.512C490.646 344.709 479.215 352.329 462.704 352.329C443.441 352.329 427.142 340.475 427.142 319.942V305.971H503.347C503.982 305.971 504.616 305.548 504.616 304.701V285.65ZM497.843 285.65V300.044H427.142V285.65C427.142 263.847 441.113 251.781 462.492 251.781C483.66 251.781 497.843 264.059 497.843 285.65Z" fill="#476276"/>
<path d="M615.638 345.344C616.485 344.92 616.485 344.074 616.062 343.439L613.945 340.687C613.522 340.052 612.887 339.84 612.04 340.475C601.456 348.307 590.872 352.329 578.594 352.329C556.156 352.329 543.456 337.512 543.456 319.307V284.592C543.456 266.599 555.945 251.781 578.594 251.781C590.025 251.781 599.551 254.745 609.288 261.73C610.135 262.365 610.558 261.942 611.193 261.519L613.098 258.555C613.522 257.92 613.522 257.285 612.675 256.65C602.303 249.241 591.507 245.431 578.806 245.431C552.346 245.431 536.682 262.789 536.682 284.592V319.307C536.682 341.11 552.346 358.468 578.806 358.468C592.989 358.468 604.631 354.023 615.638 345.344V345.344Z" fill="#6287A1"/>
<path d="M653.435 323.541V254.11H689.209C689.844 254.11 690.479 253.475 690.479 252.628V249.029C690.479 248.394 689.844 247.759 689.209 247.759H653.435V221.511C653.224 220.664 652.8 220.241 651.954 220.241H647.932C647.085 220.241 646.662 220.664 646.662 221.511V323.752C646.662 345.556 658.939 358.045 679.26 358.045C682.224 358.045 687.939 357.833 691.961 357.41C692.808 357.198 693.231 356.775 693.231 355.928V352.329C693.231 351.483 692.808 351.059 691.961 351.059C687.728 351.483 682.436 351.694 679.26 351.694C662.326 351.694 653.435 341.322 653.435 323.541V323.541Z" fill="#9AD4FC"/>
</svg>
