<svg xmlns:dc="http://purl.org/dc/elements/1.1/" xmlns:cc="http://creativecommons.org/ns#" xmlns:rdf="http://www.w3.org/1999/02/22-rdf-syntax-ns#" xmlns:svg="http://www.w3.org/2000/svg" xmlns="http://www.w3.org/2000/svg" xmlns:xlink="http://www.w3.org/1999/xlink" id="svg259137" viewBox="0 0 1024 768" height="768px" width="1024px" version="1.1">
  <metadata id="metadata259143">
    <rdf:rdf>
      <cc:work rdf:about="">
        <dc:format>image/svg+xml</dc:format>
        <dc:type rdf:resource="http://purl.org/dc/dcmitype/StillImage"></dc:type>
      </cc:work>
    </rdf:rdf>
  </metadata>
  <defs id="defs259141"></defs>
  <linearGradient spreadMethod="pad" y2="30%" x2="-10%" y1="120%" x1="30%" id="3d_gradient2-logo-bf87a841-d79b-4bae-a226-a77afe7158ff">
    <stop id="stop259118" stop-opacity="1" stop-color="#ffffff" offset="0%" data-darkreader-inline-stopcolor="" style="--darkreader-inline-stopcolor:#17191a;"></stop>
    <stop id="stop259120" stop-opacity="1" stop-color="#000000" offset="100%" data-darkreader-inline-stopcolor="" style="--darkreader-inline-stopcolor:#000000;"></stop>
  </linearGradient>
  <linearGradient gradientTransform="rotate(-30)" spreadMethod="pad" y2="30%" x2="-10%" y1="120%" x1="30%" id="3d_gradient3-logo-bf87a841-d79b-4bae-a226-a77afe7158ff">
    <stop id="stop259123" stop-opacity="1" stop-color="#ffffff" offset="0%" data-darkreader-inline-stopcolor="" style="--darkreader-inline-stopcolor:#17191a;"></stop>
    <stop id="stop259125" stop-opacity="1" stop-color="#cccccc" offset="50%" data-darkreader-inline-stopcolor="" style="--darkreader-inline-stopcolor:#323638;"></stop>
    <stop id="stop259127" stop-opacity="1" stop-color="#000000" offset="100%" data-darkreader-inline-stopcolor="" style="--darkreader-inline-stopcolor:#000000;"></stop>
  </linearGradient>
  <g id="logo-group">
    <image xlink:href="" id="container" x="272" y="144" width="480" height="480" style="display: none;" transform="translate(0 0)"></image>
    <g id="logo-center" transform="translate(0 0)">
      <image xlink:href="" id="icon_container" style="display: none;" x="0" y="0"></image>
      <g id="slogan" style="font-style:normal;font-weight:400;font-size:32px;line-height:1;font-family:Montserrat;font-variant-ligatures:none;text-align:center;text-anchor:middle" transform="translate(0 0)"></g>
      <g id="title" style="font-style:normal;font-weight:300;font-size:72px;line-height:1;font-family:'Uni Neue';font-variant-ligatures:none;text-align:center;text-anchor:middle" transform="translate(0 0)">
        <path id="path259146" style="font-style: normal; font-weight: 300; font-size: 72px; line-height: 1; font-family: &quot;Uni Neue&quot;; font-variant-ligatures: none; text-align: center; text-anchor: middle; --darkreader-inline-fill:#03070a; --darkreader-inline-stroke:#d8d6d2;" d="m 435.60687,-11.16 v -23.616 h 12.168 c 0.21601,0 0.43201,-0.216 0.43201,-0.504 v -1.224 c 0,-0.216 -0.216,-0.432 -0.43201,-0.432 h -12.168 v -8.928 c -0.072,-0.288 -0.216,-0.432 -0.504,-0.432 h -1.368 c -0.288,0 -0.432,0.144 -0.432,0.432 v 34.776 c 0,7.416 4.17601,11.664 11.088,11.664 1.008,0 2.952,-0.072 4.32,-0.216 0.288,-0.072 0.432,-0.216 0.432,-0.504 v -1.224 c 0,-0.288 -0.144,-0.432 -0.432,-0.432 -1.44,0.144 -3.24,0.216 -4.32,0.216 -5.76,0 -8.784,-3.528 -8.784,-9.576 z" stroke-width="0" stroke-linejoin="miter" stroke-miterlimit="2" fill="#04090c" stroke="#04090c" transform="translate(0 357.13719999999995) translate(251.8844114000001 -34.63024000000001) scale(2.94) translate(-433.30287 46.296)" data-darkreader-inline-fill="" data-darkreader-inline-stroke=""></path>
        <path id="path259148" style="font-style: normal; font-weight: 300; font-size: 72px; line-height: 1; font-family: &quot;Uni Neue&quot;; font-variant-ligatures: none; text-align: center; text-anchor: middle; --darkreader-inline-fill:#131c23; --darkreader-inline-stroke:#c7c4be;" d="m 482.11325,-24.048 c 0,-8.712 -5.904,-13.68 -14.328,-13.68 -8.424,0 -14.328,4.968 -14.328,13.68 v 11.664 c 0,8.28 6.768,13.104 14.328,13.104 6.12,0 10.584,-2.736 13.608,-5.544 0.288,-0.144 0.288,-0.36 0.072,-0.576 l -0.792,-0.936 c -0.144,-0.216 -0.36,-0.216 -0.576,-0.072 -2.736,2.448 -6.624,5.04 -12.24,5.04 -6.552,0 -12.096,-4.032 -12.096,-11.016 v -4.752 h 25.92 c 0.216,0 0.432,-0.144 0.432,-0.432 z m -2.304,0 v 4.896 h -24.048 v -4.896 c 0,-7.416 4.752,-11.52 12.024,-11.52 7.2,0 12.024,4.176 12.024,11.52 z" stroke-width="0" stroke-linejoin="miter" stroke-miterlimit="2" fill="#19252e" stroke="#19252e" transform="translate(0 357.13719999999995) translate(319.9582886000002 -9.440320000000007) scale(2.94) translate(-453.45725 37.728)" data-darkreader-inline-fill="" data-darkreader-inline-stroke=""></path>
        <path id="path259150" style="font-style: normal; font-weight: 300; font-size: 72px; line-height: 1; font-family: &quot;Uni Neue&quot;; font-variant-ligatures: none; text-align: center; text-anchor: middle; --darkreader-inline-fill:#23323c; --darkreader-inline-stroke:#9fb5c2;" d="m 504.41975,0.432 c 0.288,-0.072 0.432,-0.288 0.432,-0.576 v -1.224 c 0,-0.288 -0.144,-0.36 -0.432,-0.36 -1.44,0.216 -3.096,0.288 -4.104,0.288 -4.248,0 -6.912,-2.664 -6.912,-9.504 v -40.104 c 0,-0.288 -0.144,-0.432 -0.432,-0.432 h -1.44 c -0.288,0 -0.432,0.144 -0.432,0.432 v 39.888 c 0,8.424 3.6,11.88 9.144,11.88 1.152,0 2.952,-0.144 4.176,-0.288 z" stroke-width="0" stroke-linejoin="miter" stroke-miterlimit="2" fill="#2e424f" stroke="#2e424f" transform="translate(0 357.13719999999995) translate(439.4472386000001 -49.87119999999998) scale(2.94) translate(-491.09975 51.48)" data-darkreader-inline-fill="" data-darkreader-inline-stroke=""></path>
        <path id="path259152" style="font-style: normal; font-weight: 300; font-size: 72px; line-height: 1; font-family: &quot;Uni Neue&quot;; font-variant-ligatures: none; text-align: center; text-anchor: middle; --darkreader-inline-fill:#364a59; --darkreader-inline-stroke:#90a7b7;" d="m 537.09762,-24.048 c 0,-8.712 -5.904,-13.68 -14.32799,-13.68 -8.424,0 -14.32801,4.968 -14.32801,13.68 v 11.664 c 0,8.28 6.768,13.104 14.32801,13.104 6.12,0 10.58399,-2.736 13.60799,-5.544 0.288,-0.144 0.288,-0.36 0.072,-0.576 l -0.79199,-0.936 c -0.144,-0.216 -0.36,-0.216 -0.576,-0.072 -2.736,2.448 -6.62401,5.04 -12.24,5.04 -6.55201,0 -12.096,-4.032 -12.096,-11.016 v -4.752 h 25.91999 c 0.216,0 0.432,-0.144 0.432,-0.432 z m -2.30399,0 v 4.896 h -24.048 v -4.896 c 0,-7.416 4.75199,-11.52 12.024,-11.52 7.19999,0 12.024,4.176 12.024,11.52 z" stroke-width="0" stroke-linejoin="miter" stroke-miterlimit="2" fill="#476276" stroke="#476276" transform="translate(0 357.13719999999995) translate(499.25233640000016 -9.440320000000007) scale(2.94) translate(-508.44162 37.728)" data-darkreader-inline-fill="" data-darkreader-inline-stroke=""></path>
        <path id="path259154" style="font-style: normal; font-weight: 300; font-size: 72px; line-height: 1; font-family: &quot;Uni Neue&quot;; font-variant-ligatures: none; text-align: center; text-anchor: middle; --darkreader-inline-fill:#476478; --darkreader-inline-stroke:#6b8ca2;" d="m 571.86013,-3.744 c 0.288,-0.144 0.288,-0.432 0.144,-0.648 l -0.72,-0.936 c -0.14401,-0.216 -0.36001,-0.288 -0.64801,-0.072 -3.6,2.664 -7.2,4.032 -11.37599,4.032 -7.63201,0 -11.952,-5.04 -11.952,-11.232 v -11.808 c 0,-6.12 4.24799,-11.16 11.952,-11.16 3.888,0 7.12799,1.008 10.43999,3.384 0.288,0.216 0.432,0.072 0.648,-0.072 l 0.648,-1.008 c 0.144,-0.216 0.144,-0.432 -0.144,-0.648 -3.528,-2.52 -7.2,-3.816 -11.51999,-3.816 -9,0 -14.328,5.904 -14.328,13.32 V -12.6 c 0,7.416 5.328,13.32 14.328,13.32 4.82399,0 8.78399,-1.512 12.528,-4.464 z" stroke-width="0" stroke-linejoin="miter" stroke-miterlimit="2" fill="#6287a1" stroke="#6287a1" transform="translate(0 357.13719999999995) translate(615.5661158000003 -9.440320000000007) scale(2.94) translate(-545.00413 37.728)" data-darkreader-inline-fill="" data-darkreader-inline-stroke=""></path>
        <path id="path259156" style="font-style: normal; font-weight: 300; font-size: 72px; line-height: 1; font-family: &quot;Uni Neue&quot;; font-variant-ligatures: none; text-align: center; text-anchor: middle; --darkreader-inline-fill:#034069; --darkreader-inline-stroke:#80c2ee;" d="m 581.71625,-11.16 v -23.616 h 12.168 c 0.216,0 0.432,-0.216 0.432,-0.504 v -1.224 c 0,-0.216 -0.216,-0.432 -0.432,-0.432 h -12.168 v -8.928 c -0.072,-0.288 -0.216,-0.432 -0.504,-0.432 h -1.368 c -0.288,0 -0.432,0.144 -0.432,0.432 v 34.776 c 0,7.416 4.176,11.664 11.088,11.664 1.008,0 2.952,-0.072 4.32,-0.216 0.288,-0.072 0.432,-0.216 0.432,-0.504 v -1.224 c 0,-0.288 -0.144,-0.432 -0.432,-0.432 -1.44,0.144 -3.24,0.216 -4.32,0.216 -5.76,0 -8.784,-3.528 -8.784,-9.576 z" stroke-width="0" stroke-linejoin="miter" stroke-miterlimit="2" fill="#9ad4fc" stroke="#9ad4fc" transform="translate(0 357.13719999999995) translate(725.5459885999999 -34.63024000000001) scale(2.94) translate(-579.41225 46.296)" data-darkreader-inline-fill="" data-darkreader-inline-stroke=""></path>
      </g>
      <image xlink:href="" id="icon" style="display: none;" x="0" y="0"></image>
    </g>
  </g>
</svg>